# xmcd
# Copyright (C) 1995-1998 Ti Kan
#
# Track frame offsets:
#       150
#       6686
#       17551
#       40387
#       54698
#       71142
#       76645
#       94860
#       111173
#       127870
#       146900
#       151270
#       165365
#       172192
#       188574
#       204693
#       222479
#       254521
#       264355
#       269429
#       284440
#
# Disc length: 4411 seconds
#
# Revision: 0
# Processed by: cddbd v1.5.2PL0 Copyright (c) Steve Scherf et al.
# Submitted via: CD-Import v1.0
#
DISCID=39113915
DTITLE=Flashdigga - Fluidum Lp
DYEAR=2010
DGENRE=
TTITLE0=Bif Buddha From The Bucket
TTITLE1=Jamais
TTITLE2=Powerful Muzik
TTITLE3=Dae Shit
TTITLE4=Froid!
TTITLE5=Deine Mudda
TTITLE6=Süchtig
TTITLE7=Keiner
TTITLE8=Flashytwon
TTITLE9=Lauf
TTITLE10=Vorm Club
TTITLE11=Schiss Uf
TTITLE12=Im Mondlicht
TTITLE13=Irgendwaenn
TTITLE14=Autopilot
TTITLE15=Trottoir
TTITLE16=Digg A Depth
TTITLE17=Blaue Lagune
TTITLE18=Andy Ist Gegangen
TTITLE19=Under Null
TTITLE20=The Shitter
EXTD=
EXTT0=
EXTT1=
EXTT2=
EXTT3=
EXTT4=
EXTT5=
EXTT6=
EXTT7=
EXTT8=
EXTT9=
EXTT10=
EXTT11=
EXTT12=
EXTT13=
EXTT14=
EXTT15=
EXTT16=
EXTT17=
EXTT18=
EXTT19=
EXTT20=
PLAYORDER=
